<svg width="32" height="32" viewBox="0 0 32 32" fill="none" xmlns="http://www.w3.org/2000/svg">
<path d="M6.2624 7.654C5.3624 7.92185 4.51865 8.19641 3.73116 8.47765C2.94366 8.7589 2.24991 9.03346 1.64991 9.30131L0.618652 3.61604C1.95615 3.17408 3.25615 2.78569 4.51865 2.45087C5.79365 2.11604 7.0124 1.8281 8.1749 1.58703C9.33741 1.34595 10.4374 1.14506 11.4749 0.984349C12.5124 0.823635 13.4749 0.689707 14.3624 0.582564C16.4249 0.341492 18.3311 0.21426 20.0812 0.200867C21.9186 0.227653 23.5249 0.42185 24.9 0.783456C26.2749 1.14506 27.4187 1.654 28.3311 2.31024C29.2561 2.96649 29.9499 3.75667 30.4124 4.68077C30.8749 5.60489 31.1061 6.63613 31.1061 7.77452C31.1061 9.26114 30.7811 10.587 30.1311 11.7522C29.4937 12.9173 28.6436 13.9487 27.5811 14.8459C26.5186 15.7299 25.3 16.4932 23.9249 17.1361C22.5624 17.7789 21.1562 18.3213 19.7061 18.7634C18.2561 19.2053 16.8187 19.5602 15.3936 19.8281C13.9686 20.0826 12.6749 20.2768 11.5124 20.4107L11.5499 25.9152L17.8874 25.9553V30.5759L1.9874 31.6405L1.8749 25.8348L7.48115 25.8749L6.2624 7.654ZM19.0124 5.06248C18.5874 5.06248 18.0937 5.09595 17.5311 5.16292C16.9811 5.21649 16.3811 5.29685 15.7311 5.404C15.0812 5.49775 14.3936 5.61828 13.6687 5.7656C12.9437 5.91292 12.1999 6.07363 11.4374 6.24775L11.5124 17.1161C12.4124 16.9152 13.3624 16.6674 14.3624 16.3728C15.3749 16.0647 16.3686 15.7098 17.3437 15.308C18.3311 14.9063 19.2687 14.4576 20.1562 13.962C21.0436 13.4531 21.8124 12.8973 22.4624 12.2946C23.1124 11.692 23.6124 11.0491 23.9624 10.366C24.3249 9.66962 24.4624 8.93301 24.3749 8.15623C24.3124 7.59372 24.1374 7.11828 23.8499 6.72988C23.5624 6.3281 23.1811 6.00667 22.7061 5.7656C22.2436 5.51114 21.6937 5.33033 21.0561 5.22319C20.4312 5.11604 19.7499 5.06248 19.0124 5.06248Z" fill="url(#paint0_linear_234_5)"/>
<defs>
<linearGradient id="paint0_linear_234_5" x1="15.9999" y1="-9.14288" x2="15.9999" y2="44.5714" gradientUnits="userSpaceOnUse">
<stop stop-color="#6F1998"/>
<stop offset="0.963542" stop-color="#701CDA"/>
</linearGradient>
</defs>
</svg>
