<svg width="28" height="50" viewBox="0 0 28 50" fill="none" xmlns="http://www.w3.org/2000/svg">
<path fill-rule="evenodd" clip-rule="evenodd" d="M26.5774 1.1725C26.752 1.34667 26.8906 1.55357 26.9851 1.78137C27.0796 2.00916 27.1283 2.25337 27.1283 2.49999C27.1283 2.74662 27.0796 2.99083 26.9851 3.21862C26.8906 3.44642 26.752 3.65332 26.5774 3.8275L5.40118 25L26.5774 46.1725C26.9295 46.5246 27.1273 47.0021 27.1273 47.5C27.1273 47.9979 26.9295 48.4754 26.5774 48.8275C26.2254 49.1796 25.7478 49.3774 25.2499 49.3774C24.752 49.3774 24.2745 49.1796 23.9224 48.8275L1.42243 26.3275C1.24782 26.1533 1.10928 25.9464 1.01476 25.7186C0.920236 25.4908 0.871582 25.2466 0.871582 25C0.871582 24.7534 0.920236 24.5092 1.01476 24.2814C1.10928 24.0536 1.24782 23.8467 1.42243 23.6725L23.9224 1.1725C24.0966 0.997883 24.3035 0.859347 24.5313 0.764823C24.7591 0.670299 25.0033 0.621643 25.2499 0.621643C25.4966 0.621643 25.7408 0.670299 25.9686 0.764823C26.1964 0.859347 26.4033 0.997883 26.5774 1.1725Z" fill="white"/>
</svg>
