<svg width="28" height="50" viewBox="0 0 28 50" fill="none" xmlns="http://www.w3.org/2000/svg">
<path fill-rule="evenodd" clip-rule="evenodd" d="M1.42243 1.1725C1.5966 0.997883 1.80351 0.859347 2.03131 0.764823C2.2591 0.670299 2.50331 0.621643 2.74993 0.621643C2.99656 0.621643 3.24076 0.670299 3.46856 0.764823C3.69635 0.859347 3.90326 0.997883 4.07743 1.1725L26.5774 23.6725C26.752 23.8467 26.8906 24.0536 26.9851 24.2814C27.0796 24.5092 27.1283 24.7534 27.1283 25C27.1283 25.2466 27.0796 25.4908 26.9851 25.7186C26.8906 25.9464 26.752 26.1533 26.5774 26.3275L4.07743 48.8275C3.72536 49.1796 3.24784 49.3774 2.74993 49.3774C2.25202 49.3774 1.77451 49.1796 1.42243 48.8275C1.07036 48.4754 0.872564 47.9979 0.872564 47.5C0.872564 47.0021 1.07036 46.5246 1.42243 46.1725L22.5987 25L1.42243 3.8275C1.24782 3.65332 1.10928 3.44642 1.01476 3.21862C0.920236 2.99083 0.871582 2.74662 0.871582 2.49999C0.871582 2.25337 0.920236 2.00916 1.01476 1.78137C1.10928 1.55357 1.24782 1.34667 1.42243 1.1725Z" fill="white"/>
</svg>
